<svg xmlns="http://www.w3.org/2000/svg" viewBox="0 0 11008 256">
  <path d="M128.637 66.633c.335.003.668.01 1 .018M386.992 66.7c1.227.06 2.444.153 3.65.282M646.308 66.947c2.81.286 5.564.76 8.248 1.412M906.936 67.596c4.94.885 9.672 2.36 14.125 4.352M1168.68 68.915c7.346 2.064 14.135 5.462 20.088 9.914M1431.234 71.166c9.9 4.044 18.51 10.6 25.036 18.874M1694.36 74.633c12.265 6.98 21.89 18.064 27.006 31.383M1957.563 79.434c14.017 10.842 23.215 27.613 23.834 46.555M2220.685 85.888c10.38 10.997 16.745 25.826 16.745 42.142 0 6.996-1.17 13.717-3.324 19.98M2483.13 93.977c6.506 9.745 10.3 21.456 10.3 34.053 0 15.557-5.785 29.762-15.322 40.582M2744.354 103.546c3.266 7.5 5.076 15.78 5.076 24.484 0 24.617-14.486 45.85-35.4 55.64M3003.89 114.31c1.008 4.41 1.54 9.003 1.54 13.72 0 33.91-27.49 61.4-61.4 61.4M3261.4 126.084c.02.646.03 1.295.03 1.946 0 33.91-27.49 61.4-61.4 61.4-9.638 0-18.757-2.22-26.874-6.178M3516.568 138.34c-4.903 29.002-30.14 51.09-60.538 51.09-19.826 0-37.458-9.397-48.683-23.98M3769.24 150.367c-8.933 22.866-31.18 39.063-57.21 39.063-30.113 0-55.164-21.68-60.396-50.28M4019.528 161.48c-10.95 16.825-29.925 27.95-51.498 27.95-33.91 0-61.4-27.49-61.4-61.4 0-6.358.967-12.49 2.76-18.258M4267.514 171.38c-11.116 11.15-26.494 18.05-43.484 18.05-33.91 0-61.4-27.49-61.4-61.4 0-16.955 6.873-32.305 17.984-43.416M4513.573 179.467c-9.643 6.3-21.165 9.963-33.543 9.963-33.91 0-61.4-27.49-61.4-61.4 0-27.552 18.148-50.865 43.142-58.64M4758.322 185.258c-6.91 2.694-14.428 4.172-22.292 4.172-33.91 0-61.4-27.49-61.4-61.4s27.49-61.4 61.4-61.4c3.727 0 7.376.332 10.92.968M5001.97 188.63c-3.235.526-6.556.8-9.94.8-33.91 0-61.4-27.49-61.4-61.4s27.49-61.4 61.4-61.4c14.143 0 27.168 4.782 37.55 12.816M5246.05 189.4c-32.994-1.047-59.42-28.122-59.42-61.37 0-33.91 27.49-61.4 61.4-61.4 24.22 0 45.163 14.022 55.156 34.39M5490.298 187.89c-27.3-6.238-47.668-30.67-47.668-59.86 0-33.91 27.49-61.4 61.4-61.4s61.4 27.49 61.4 61.4" fill="none" stroke="#000" stroke-width=".8" stroke-miterlimit="10"/>
  <g>
    <path d="M5735.514 184.34c-21.71-9.465-36.884-31.115-36.884-56.31 0-33.91 27.49-61.4 61.4-61.4s61.4 27.49 61.4 61.4c0 9.135-1.995 17.804-5.572 25.595" fill="none" stroke="#000" stroke-width=".8" stroke-miterlimit="10"/>
  </g>
  <g>
    <path d="M5981.902 179.08c-16.445-11.017-27.272-29.77-27.272-51.05 0-33.91 27.49-61.4 61.4-61.4s61.4 27.49 61.4 61.4c0 18.312-8.016 34.75-20.73 46" fill="none" stroke="#000" stroke-width=".8" stroke-miterlimit="10"/></g><g><path d="M6229.79 172.593c-11.8-11.19-19.16-27.017-19.16-44.563 0-33.91 27.49-61.4 61.4-61.4s61.4 27.49 61.4 61.4c0 26.88-17.272 49.725-41.323 58.043" fill="none" stroke="#000" stroke-width=".8" stroke-miterlimit="10"/></g><g><path d="M6479.41 165.533c-8.012-10.373-12.78-23.38-12.78-37.503 0-33.91 27.49-61.4 61.4-61.4s61.4 27.49 61.4 61.4-27.49 61.4-61.4 61.4c-.706 0-1.41-.012-2.11-.035" fill="none" stroke="#000" stroke-width=".8" stroke-miterlimit="10"/></g><g><path d="M6730.63 158.355c-5.092-8.946-8-19.296-8-30.325 0-33.91 27.49-61.4 61.4-61.4s61.4 27.49 61.4 61.4-27.49 61.4-61.4 61.4c-7.698 0-15.066-1.416-21.856-4.004" fill="none" stroke="#000" stroke-width=".8" stroke-miterlimit="10"/></g><g><path d="M6983.102 151.075c-2.884-7.116-4.472-14.895-4.472-23.045 0-33.91 27.49-61.4 61.4-61.4s61.4 27.49 61.4 61.4-27.49 61.4-61.4 61.4c-14.29 0-27.44-4.882-37.874-13.07" fill="none" stroke="#000" stroke-width=".8" stroke-miterlimit="10"/></g><g><path d="M7236.9 144.633c-1.478-5.28-2.27-10.85-2.27-16.603 0-33.91 27.49-61.4 61.4-61.4s61.4 27.49 61.4 61.4-27.49 61.4-61.4 61.4c-20.094 0-37.934-9.652-49.135-24.574" fill="none" stroke="#000" stroke-width=".8" stroke-miterlimit="10"/></g><g><path d="M7491.612 139.025c-.645-3.567-.982-7.24-.982-10.995 0-33.91 27.49-61.4 61.4-61.4s61.4 27.49 61.4 61.4-27.49 61.4-61.4 61.4c-24.99 0-46.492-14.928-56.076-36.354" fill="none" stroke="#000" stroke-width=".8" stroke-miterlimit="10"/></g><g><path d="M7746.947 134.308c-.21-2.064-.317-4.158-.317-6.278 0-33.91 27.49-61.4 61.4-61.4s61.4 27.49 61.4 61.4-27.49 61.4-61.4 61.4c-28.853 0-53.058-19.902-59.635-46.727" fill="none" stroke="#000" stroke-width=".8" stroke-miterlimit="10"/></g><g><path d="M8002.69 130.785c-.04-.913-.06-1.832-.06-2.755 0-33.91 27.49-61.4 61.4-61.4s61.4 27.49 61.4 61.4-27.49 61.4-61.4 61.4c-31.677 0-57.75-23.988-61.048-54.79" fill="none" stroke="#000" stroke-width=".8" stroke-miterlimit="10"/></g><g><path d="M8258.633 128.655c-.002-.208-.003-.416-.003-.625 0-33.91 27.49-61.4 61.4-61.4s61.4 27.49 61.4 61.4-27.49 61.4-61.4 61.4c-33.367 0-60.518-26.616-61.38-59.776" fill="none" stroke="#000" stroke-width=".8" stroke-miterlimit="10"/></g><g><circle cx="640.151" cy="640.151" r="307" fill="none" stroke="#000" stroke-width="4" stroke-miterlimit="10" transform="matrix(.2 0 0 .2 8448 0)"/></g><g><g transform="matrix(.2 0 0 .2 8704 0)"><path d="M745.185 700.01c-3.726 0-6.855-1.072-9.3-3.186-2.446-2.116-3.636-4.617-3.636-7.646v-19.245h4.838v17.563c0 2.607.8 4.57 2.38 5.832 1.527 1.223 3.45 1.843 5.716 1.843 2.265 0 4.188-.62 5.717-1.842 1.58-1.263 2.38-3.225 2.38-5.832v-17.563h4.84v19.245c0 3.03-1.19 5.53-3.637 7.646-2.443 2.114-5.572 3.186-9.298 3.186zM772.172 681.19v18.82h-4.84v-29.833l21.874 18.825v-19.09h4.84v30.156M803.958 669.912h4.818v30.1h-4.818zM832.17 700.01c-4.262 0-7.873-1.452-10.73-4.316-2.858-2.865-4.307-6.472-4.307-10.723 0-4.262 1.45-7.873 4.307-10.73 2.858-2.858 6.47-4.307 10.732-4.307s7.875 1.45 10.733 4.306c2.858 2.857 4.307 6.468 4.307 10.73 0 4.265-1.45 7.876-4.307 10.733-2.86 2.858-6.47 4.307-10.734 4.307zm-.02-25.66c-2.99 0-5.464 1.036-7.354 3.076-1.875 2.024-2.825 4.563-2.825 7.545 0 2.984.952 5.522 2.826 7.546 1.89 2.04 4.378 3.075 7.396 3.075 2.99 0 5.464-1.034 7.354-3.074 1.875-2.024 2.825-4.563 2.825-7.545 0-2.98-.95-5.52-2.824-7.544-1.89-2.04-4.377-3.075-7.396-3.075zM874.836 700.01l-7.55-13.04h-6.922v13.04h-4.84v-30.078h13.02c6.935 0 10.306 2.732 10.306 8.35 0 4.24-1.732 6.86-5.295 8.01l-.862.277 7.687 13.44h-5.544zm-14.472-17.458h9.568c3.738-.062 4.59-2.31 4.647-4.183v-.05c-.06-1.732-.9-3.824-4.56-3.948h-9.656v8.18zM717.497 669.933v17.563c0 2.607-.8 4.57-2.38 5.832-1.528 1.223-3.45 1.843-5.716 1.843-2.264 0-4.188-.62-5.716-1.842-.146-.117-.278-.246-.41-.374l-3.47 3.59c.1.093.19.19.297.28 2.445 2.115 5.574 3.187 9.3 3.187 3.726 0 6.855-1.07 9.3-3.186 2.446-2.116 3.636-4.617 3.636-7.646v-19.245h-4.84z"/><circle cx="640.151" cy="640.151" r="307" fill="none" stroke="#000" stroke-width="4" stroke-miterlimit="10"/></g></g><g><circle cx="640.151" cy="640.151" r="307" fill="none" stroke="#000" stroke-width="4" stroke-miterlimit="10" transform="matrix(.2 0 0 .2 8960 0)"/></g><g><g transform="matrix(.2 0 0 .2 9216 0)"><circle cx="640.151" cy="640.151" r="307" fill="none" stroke="#000" stroke-width="4" stroke-miterlimit="10"/><path d="M745.185 700.01c-3.726 0-6.855-1.072-9.3-3.186-2.446-2.116-3.636-4.617-3.636-7.646v-19.245h4.838v17.563c0 2.607.8 4.57 2.38 5.832 1.527 1.223 3.45 1.843 5.716 1.843 2.265 0 4.188-.62 5.717-1.842 1.58-1.263 2.38-3.225 2.38-5.832v-17.563h4.84v19.245c0 3.03-1.19 5.53-3.637 7.646-2.443 2.114-5.572 3.186-9.298 3.186zM772.172 681.19v18.82h-4.84v-29.833l21.874 18.825v-19.09h4.84v30.156M803.958 669.912h4.818v30.1h-4.818zM832.17 700.01c-4.262 0-7.873-1.452-10.73-4.316-2.858-2.865-4.307-6.472-4.307-10.723 0-4.262 1.45-7.873 4.307-10.73 2.858-2.858 6.47-4.307 10.732-4.307s7.875 1.45 10.733 4.306c2.858 2.857 4.307 6.468 4.307 10.73 0 4.265-1.45 7.876-4.307 10.733-2.86 2.858-6.47 4.307-10.734 4.307zm-.02-25.66c-2.99 0-5.464 1.036-7.354 3.076-1.875 2.024-2.825 4.563-2.825 7.545 0 2.984.952 5.522 2.826 7.546 1.89 2.04 4.378 3.075 7.396 3.075 2.99 0 5.464-1.034 7.354-3.074 1.875-2.024 2.825-4.563 2.825-7.545 0-2.98-.95-5.52-2.824-7.544-1.89-2.04-4.377-3.075-7.396-3.075zM874.836 700.01l-7.55-13.04h-6.922v13.04h-4.84v-30.078h13.02c6.935 0 10.306 2.732 10.306 8.35 0 4.24-1.732 6.86-5.295 8.01l-.862.277 7.687 13.44h-5.544zm-14.472-17.458h9.568c3.738-.062 4.59-2.31 4.647-4.183v-.05c-.06-1.732-.9-3.824-4.56-3.948h-9.656v8.18zM717.497 669.933v17.563c0 2.607-.8 4.57-2.38 5.832-1.528 1.223-3.45 1.843-5.716 1.843-2.264 0-4.188-.62-5.716-1.842-.146-.117-.278-.246-.41-.374l-3.47 3.59c.1.093.19.19.297.28 2.445 2.115 5.574 3.187 9.3 3.187 3.726 0 6.855-1.07 9.3-3.186 2.446-2.116 3.636-4.617 3.636-7.646v-19.245h-4.84z"/></g></g><g><circle cx="640.151" cy="640.151" r="307" fill="none" stroke="#000" stroke-width="4" stroke-miterlimit="10" transform="matrix(.2 0 0 .2 9472 0)"/></g><g><g transform="matrix(.2 0 0 .2 9728 0)"><circle cx="640.151" cy="640.151" r="307" fill="none" stroke="#000" stroke-width="4" stroke-miterlimit="10"/><path d="M745.185 700.01c-3.726 0-6.855-1.072-9.3-3.186-2.446-2.116-3.636-4.617-3.636-7.646v-19.245h4.838v17.563c0 2.607.8 4.57 2.38 5.832 1.527 1.223 3.45 1.843 5.716 1.843 2.265 0 4.188-.62 5.717-1.842 1.58-1.263 2.38-3.225 2.38-5.832v-17.563h4.84v19.245c0 3.03-1.19 5.53-3.637 7.646-2.443 2.114-5.572 3.186-9.298 3.186zM772.172 681.19v18.82h-4.84v-29.833l21.874 18.825v-19.09h4.84v30.156M803.958 669.912h4.818v30.1h-4.818zM832.17 700.01c-4.262 0-7.873-1.452-10.73-4.316-2.858-2.865-4.307-6.472-4.307-10.723 0-4.262 1.45-7.873 4.307-10.73 2.858-2.858 6.47-4.307 10.732-4.307s7.875 1.45 10.733 4.306c2.858 2.857 4.307 6.468 4.307 10.73 0 4.265-1.45 7.876-4.307 10.733-2.86 2.858-6.47 4.307-10.734 4.307zm-.02-25.66c-2.99 0-5.464 1.036-7.354 3.076-1.875 2.024-2.825 4.563-2.825 7.545 0 2.984.952 5.522 2.826 7.546 1.89 2.04 4.378 3.075 7.396 3.075 2.99 0 5.464-1.034 7.354-3.074 1.875-2.024 2.825-4.563 2.825-7.545 0-2.98-.95-5.52-2.824-7.544-1.89-2.04-4.377-3.075-7.396-3.075zM874.836 700.01l-7.55-13.04h-6.922v13.04h-4.84v-30.078h13.02c6.935 0 10.306 2.732 10.306 8.35 0 4.24-1.732 6.86-5.295 8.01l-.862.277 7.687 13.44h-5.544zm-14.472-17.458h9.568c3.738-.062 4.59-2.31 4.647-4.183v-.05c-.06-1.732-.9-3.824-4.56-3.948h-9.656v8.18zM717.497 669.933v17.563c0 2.607-.8 4.57-2.38 5.832-1.528 1.223-3.45 1.843-5.716 1.843-2.264 0-4.188-.62-5.716-1.842-.146-.117-.278-.246-.41-.374l-3.47 3.59c.1.093.19.19.297.28 2.445 2.115 5.574 3.187 9.3 3.187 3.726 0 6.855-1.07 9.3-3.186 2.446-2.116 3.636-4.617 3.636-7.646v-19.245h-4.84z"/></g></g><g><g transform="matrix(.2 0 0 .2 9984 0)"><circle cx="640.151" cy="640.151" r="307" fill="none" stroke="#000" stroke-width="4" stroke-miterlimit="10"/><path d="M745.185 700.01c-3.726 0-6.855-1.072-9.3-3.186-2.446-2.116-3.636-4.617-3.636-7.646v-19.245h4.838v17.563c0 2.607.8 4.57 2.38 5.832 1.527 1.223 3.45 1.843 5.716 1.843 2.265 0 4.188-.62 5.717-1.842 1.58-1.263 2.38-3.225 2.38-5.832v-17.563h4.84v19.245c0 3.03-1.19 5.53-3.637 7.646-2.443 2.114-5.572 3.186-9.298 3.186zM772.172 681.19v18.82h-4.84v-29.833l21.874 18.825v-19.09h4.84v30.156M803.958 669.912h4.818v30.1h-4.818zM832.17 700.01c-4.262 0-7.873-1.452-10.73-4.316-2.858-2.865-4.307-6.472-4.307-10.723 0-4.262 1.45-7.873 4.307-10.73 2.858-2.858 6.47-4.307 10.732-4.307s7.875 1.45 10.733 4.306c2.858 2.857 4.307 6.468 4.307 10.73 0 4.265-1.45 7.876-4.307 10.733-2.86 2.858-6.47 4.307-10.734 4.307zm-.02-25.66c-2.99 0-5.464 1.036-7.354 3.076-1.875 2.024-2.825 4.563-2.825 7.545 0 2.984.952 5.522 2.826 7.546 1.89 2.04 4.378 3.075 7.396 3.075 2.99 0 5.464-1.034 7.354-3.074 1.875-2.024 2.825-4.563 2.825-7.545 0-2.98-.95-5.52-2.824-7.544-1.89-2.04-4.377-3.075-7.396-3.075zM874.836 700.01l-7.55-13.04h-6.922v13.04h-4.84v-30.078h13.02c6.935 0 10.306 2.732 10.306 8.35 0 4.24-1.732 6.86-5.295 8.01l-.862.277 7.687 13.44h-5.544zm-14.472-17.458h9.568c3.738-.062 4.59-2.31 4.647-4.183v-.05c-.06-1.732-.9-3.824-4.56-3.948h-9.656v8.18zM717.497 669.933v17.563c0 2.607-.8 4.57-2.38 5.832-1.528 1.223-3.45 1.843-5.716 1.843-2.264 0-4.188-.62-5.716-1.842-.146-.117-.278-.246-.41-.374l-3.47 3.59c.1.093.19.19.297.28 2.445 2.115 5.574 3.187 9.3 3.187 3.726 0 6.855-1.07 9.3-3.186 2.446-2.116 3.636-4.617 3.636-7.646v-19.245h-4.84z"/><circle cx="640.151" cy="640.151" r="307" fill="none" stroke="#000" stroke-width="4" stroke-miterlimit="10"/></g></g><g><circle cx="640.151" cy="640.151" r="307" fill="none" stroke="#000" stroke-width="4" stroke-miterlimit="10" transform="matrix(.2 0 0 .2 10240 0)"/></g><g><g transform="matrix(.2 0 0 .2 10496 0)"><circle cx="640.151" cy="640.151" r="307" fill="none" stroke="#000" stroke-width="4" stroke-miterlimit="10"/><path d="M745.185 700.01c-3.726 0-6.855-1.072-9.3-3.186-2.446-2.116-3.636-4.617-3.636-7.646v-19.245h4.838v17.563c0 2.607.8 4.57 2.38 5.832 1.527 1.223 3.45 1.843 5.716 1.843 2.265 0 4.188-.62 5.717-1.842 1.58-1.263 2.38-3.225 2.38-5.832v-17.563h4.84v19.245c0 3.03-1.19 5.53-3.637 7.646-2.443 2.114-5.572 3.186-9.298 3.186zM772.172 681.19v18.82h-4.84v-29.833l21.874 18.825v-19.09h4.84v30.156M803.958 669.912h4.818v30.1h-4.818zM832.17 700.01c-4.262 0-7.873-1.452-10.73-4.316-2.858-2.865-4.307-6.472-4.307-10.723 0-4.262 1.45-7.873 4.307-10.73 2.858-2.858 6.47-4.307 10.732-4.307s7.875 1.45 10.733 4.306c2.858 2.857 4.307 6.468 4.307 10.73 0 4.265-1.45 7.876-4.307 10.733-2.86 2.858-6.47 4.307-10.734 4.307zm-.02-25.66c-2.99 0-5.464 1.036-7.354 3.076-1.875 2.024-2.825 4.563-2.825 7.545 0 2.984.952 5.522 2.826 7.546 1.89 2.04 4.378 3.075 7.396 3.075 2.99 0 5.464-1.034 7.354-3.074 1.875-2.024 2.825-4.563 2.825-7.545 0-2.98-.95-5.52-2.824-7.544-1.89-2.04-4.377-3.075-7.396-3.075zM874.836 700.01l-7.55-13.04h-6.922v13.04h-4.84v-30.078h13.02c6.935 0 10.306 2.732 10.306 8.35 0 4.24-1.732 6.86-5.295 8.01l-.862.277 7.687 13.44h-5.544zm-14.472-17.458h9.568c3.738-.062 4.59-2.31 4.647-4.183v-.05c-.06-1.732-.9-3.824-4.56-3.948h-9.656v8.18zM717.497 669.933v17.563c0 2.607-.8 4.57-2.38 5.832-1.528 1.223-3.45 1.843-5.716 1.843-2.264 0-4.188-.62-5.716-1.842-.146-.117-.278-.246-.41-.374l-3.47 3.59c.1.093.19.19.297.28 2.445 2.115 5.574 3.187 9.3 3.187 3.726 0 6.855-1.07 9.3-3.186 2.446-2.116 3.636-4.617 3.636-7.646v-19.245h-4.84z"/></g></g><g><g transform="matrix(.2 0 0 .2 10752 0)"><circle cx="640.151" cy="640.151" r="307" fill="none" stroke="#000" stroke-width="4" stroke-miterlimit="10"/><path d="M745.185 700.01c-3.726 0-6.855-1.072-9.3-3.186-2.446-2.116-3.636-4.617-3.636-7.646v-19.245h4.838v17.563c0 2.607.8 4.57 2.38 5.832 1.527 1.223 3.45 1.843 5.716 1.843 2.265 0 4.188-.62 5.717-1.842 1.58-1.263 2.38-3.225 2.38-5.832v-17.563h4.84v19.245c0 3.03-1.19 5.53-3.637 7.646-2.443 2.114-5.572 3.186-9.298 3.186zM772.172 681.19v18.82h-4.84v-29.833l21.874 18.825v-19.09h4.84v30.156M803.958 669.912h4.818v30.1h-4.818zM832.17 700.01c-4.262 0-7.873-1.452-10.73-4.316-2.858-2.865-4.307-6.472-4.307-10.723 0-4.262 1.45-7.873 4.307-10.73 2.858-2.858 6.47-4.307 10.732-4.307s7.875 1.45 10.733 4.306c2.858 2.857 4.307 6.468 4.307 10.73 0 4.265-1.45 7.876-4.307 10.733-2.86 2.858-6.47 4.307-10.734 4.307zm-.02-25.66c-2.99 0-5.464 1.036-7.354 3.076-1.875 2.024-2.825 4.563-2.825 7.545 0 2.984.952 5.522 2.826 7.546 1.89 2.04 4.378 3.075 7.396 3.075 2.99 0 5.464-1.034 7.354-3.074 1.875-2.024 2.825-4.563 2.825-7.545 0-2.98-.95-5.52-2.824-7.544-1.89-2.04-4.377-3.075-7.396-3.075zM874.836 700.01l-7.55-13.04h-6.922v13.04h-4.84v-30.078h13.02c6.935 0 10.306 2.732 10.306 8.35 0 4.24-1.732 6.86-5.295 8.01l-.862.277 7.687 13.44h-5.544zm-14.472-17.458h9.568c3.738-.062 4.59-2.31 4.647-4.183v-.05c-.06-1.732-.9-3.824-4.56-3.948h-9.656v8.18zM717.497 669.933v17.563c0 2.607-.8 4.57-2.38 5.832-1.528 1.223-3.45 1.843-5.716 1.843-2.264 0-4.188-.62-5.716-1.842-.146-.117-.278-.246-.41-.374l-3.47 3.59c.1.093.19.19.297.28 2.445 2.115 5.574 3.187 9.3 3.187 3.726 0 6.855-1.07 9.3-3.186 2.446-2.116 3.636-4.617 3.636-7.646v-19.245h-4.84z"/></g></g></svg>
